HIERARCHY
ROOT Hips
{
 OFFSET 0.000000 0.000000 0.000000
 CHANNELS 6 Xposition Yposition Zposition Yrotation Xrotation Zrotation
 JOINT Chest
 {
  OFFSET 0.000000 14.374500 -0.011500
  CHANNELS 3 Yrotation Xrotation Zrotation
  JOINT Chest2
  {
   OFFSET 0.000000 9.203400 0.023400
   CHANNELS 3 Yrotation Xrotation Zrotation
   JOINT Chest3
   {
    OFFSET 0.000000 9.162700 0.000000
    CHANNELS 3 Yrotation Xrotation Zrotation
    JOINT Chest4
    {
     OFFSET 0.000000 9.153300 0.000000
     CHANNELS 3 Yrotation Xrotation Zrotation
     JOINT Neck
     {
      OFFSET 0.000000 13.353600 0.000000
      CHANNELS 3 Yrotation Xrotation Zrotation
      JOINT Head
      {
       OFFSET 0.000000 8.573800 0.049400
       CHANNELS 3 Yrotation Xrotation Zrotation
       End Site
       {
        OFFSET 0.000000 16.219200 0.026100
       }
      }
     }
     JOINT RightCollar
     {
      OFFSET -2.497100 8.876100 0.000000
      CHANNELS 3 Yrotation Xrotation Zrotation
      JOINT RightShoulder
      {
       OFFSET -12.289200 0.000000 0.000000
       CHANNELS 3 Yrotation Xrotation Zrotation
       JOINT RightElbow
       {
        OFFSET 0.000000 -28.194900 0.000000
        CHANNELS 3 Yrotation Xrotation Zrotation
        JOINT RightWrist
        {
         OFFSET 0.000000 -23.009700 0.007900
         CHANNELS 3 Yrotation Xrotation Zrotation
         End Site
         {
          OFFSET 0.000000 -17.151500 0.000000
         }
        }
       }
      }
     }
     JOINT LeftCollar
     {
      OFFSET 2.497100 8.876100 0.000000
      CHANNELS 3 Yrotation Xrotation Zrotation
      JOINT LeftShoulder
      {
       OFFSET 12.289200 0.000000 0.000000
       CHANNELS 3 Yrotation Xrotation Zrotation
       JOINT LeftElbow
       {
        OFFSET 0.000000 -28.194900 0.000000
        CHANNELS 3 Yrotation Xrotation Zrotation
        JOINT LeftWrist
        {
         OFFSET 0.000000 -23.009700 0.007900
         CHANNELS 3 Yrotation Xrotation Zrotation
         End Site
         {
          OFFSET 0.000000 -17.151500 0.000000
         }
        }
       }
      }
     }
    }
   }
  }
 }
 JOINT RightHip
 {
  OFFSET -11.777600 0.056700 0.005700
  CHANNELS 3 Yrotation Xrotation Zrotation
  JOINT RightKnee
  {
   OFFSET 0.000000 -39.966000 -0.004200
   CHANNELS 3 Yrotation Xrotation Zrotation
   JOINT RightAnkle
   {
    OFFSET 0.000000 -41.981900 0.027400
    CHANNELS 3 Yrotation Xrotation Zrotation
    JOINT RightToe
    {
     OFFSET 0.000000 -9.910600 16.950100
     CHANNELS 3 Yrotation Xrotation Zrotation
     End Site
     {
      OFFSET 0.000000 -1.461000 6.191600
     }
    }
   }
  }
 }
 JOINT LeftHip
 {
  OFFSET 11.777600 0.056700 0.005700
  CHANNELS 3 Yrotation Xrotation Zrotation
  JOINT LeftKnee
  {
   OFFSET 0.000000 -39.966000 -0.004200
   CHANNELS 3 Yrotation Xrotation Zrotation
   JOINT LeftAnkle
   {
    OFFSET 0.000000 -41.981900 0.027400
    CHANNELS 3 Yrotation Xrotation Zrotation
    JOINT LeftToe
    {
     OFFSET 0.000000 -9.910600 16.950100
     CHANNELS 3 Yrotation Xrotation Zrotation
     End Site
     {
      OFFSET 0.000000 -1.461000 6.191600
     }
    }
   }
  }
 }
}
MOTION
Frames: 8
Frame Time: 0.008333
0.000000 91.618700 0.000000 0.000000 -5.767877 0.000000 0.000000 11.653817 0.000000 0.000000 -5.885947 0.000000 0.000000 -0.000000 0.000000 0.000000 -0.000000 0.000000 0.000000 12.528835 0.000000 0.000000 0.711642 0.000000 0.000000 -0.000000 0.000000 0.000000 0.000000 -90.000000 0.000000 -2.309062 0.000000 0.000000 2.309062 0.000000 0.000000 -0.000000 0.000000 0.000000 -0.000000 90.000000 0.000000 -2.309062 0.000000 0.000000 2.309062 0.000000 0.000000 8.520406 0.000000 0.000000 1.905762 0.000000 -0.000000 -4.658285 0.000000 0.000000 -0.000000 0.000000 0.000000 8.520406 0.000000 0.000000 1.905762 0.000000 -0.000000 -4.658285 0.000000 0.000000 -0.000000 0.000000
3.432651 152.660287 48.734184 175.629050 -48.361530 -2.518655 3.867859 28.869961 3.614776 0.543905 5.419019 0.561437 0.874082 8.509898 0.895636 2.828583 23.169222 2.888312 -0.618857 15.882160 -1.003960 -0.410272 -9.034751 -0.903703 0.592862 -2.490210 -0.524099 5.697237 -13.772881 -7.726978 45.463874 -74.776073 -30.068726 36.894158 32.895976 -6.288678 -10.299683 -5.649464 -0.254288 -0.080938 -13.437197 5.125901 -26.081603 -68.479443 1.334718 -20.454069 5.277998 18.058933 6.258007 -29.240972 -0.892840 -74.115148 85.562513 -76.235599 1.527630 -24.667110 9.441801 0.057220 -0.208179 0.042892 0.914703 -23.785617 -1.953653 108.111036 78.737577 116.376144 4.980112 -19.394428 -5.490017 0.089941 0.239886 0.052640
2.572330 145.628756 50.097816 175.723800 -48.340715 -2.680674 3.852924 28.848204 3.715601 0.542453 5.425961 0.557721 0.877208 8.505880 0.899270 2.834954 23.186496 2.889822 -0.618344 15.879926 -0.999527 -0.406333 -9.020009 -0.899741 0.587380 -2.508082 -0.524263 5.690660 -13.768000 -7.719285 45.515247 -74.759815 -30.105898 36.880221 32.890800 -6.309931 -10.299804 -5.671213 -0.248338 -0.077490 -13.405184 5.104256 -26.183835 -68.486979 1.436752 -20.449626 5.274337 18.058818 6.150709 -29.290793 -0.789995 -74.502408 85.570289 -76.623020 1.543707 -24.758487 9.451688 0.026959 -0.145604 0.015762 0.808232 -23.796538 -1.852465 108.038664 78.745050 116.301735 5.019483 -19.293820 -5.475251 0.045792 0.152149 0.026785
1.862304 139.838393 51.219975 175.808224 -48.322504 -2.813510 3.836644 28.837886 3.793891 0.542672 5.426560 0.557890 0.876623 8.500991 0.900033 2.842310 23.193749 2.892863 -0.619197 15.890061 -0.995906 -0.406597 -9.015243 -0.896233 0.578174 -2.516242 -0.527670 5.686756 -13.762429 -7.711169 45.553311 -74.753820 -30.140076 36.879959 32.885174 -6.313444 -10.303940 -5.683929 -0.244785 -0.080880 -13.389050 5.096677 -26.259305 -68.478720 1.514327 -20.435434 5.256134 18.062952 6.057913 -29.330825 -0.711102 -74.819348 85.575370 -76.944141 1.560943 -24.838377 9.454729 0.010026 -0.082907 0.005861 0.715357 -23.804527 -1.775858 107.979524 78.753860 116.241831 5.045421 -19.212994 -5.470157 0.020538 0.080957 0.012013
1.345231 135.656484 52.029313 175.861988 -48.306976 -2.887785 3.826432 28.834407 3.835794 0.547991 5.437957 0.558112 0.873761 8.491319 0.901690 2.840188 23.190855 2.895228 -0.615439 15.904984 -0.992663 -0.414029 -9.032553 -0.895883 0.568305 -2.523722 -0.528987 5.698866 -13.741414 -7.708168 45.612046 -74.753761 -30.209067 36.874195 32.878698 -6.321176 -10.308456 -5.696019 -0.243160 -0.083061 -13.372795 5.090630 -26.296626 -68.487361 1.556082 -20.438657 5.252833 18.061467 6.006217 -29.358081 -0.673261 -75.026434 85.577231 -77.152359 1.562601 -24.882343 9.457627 0.005190 -0.049352 0.003034 0.658828 -23.812103 -1.741014 107.947842 78.761500 116.214627 5.049090 -19.174413 -5.472015 0.014018 0.045209 0.008198
1.020125 133.015597 52.539741 175.907157 -48.293931 -2.949832 3.816869 28.831113 3.868765 0.546912 5.439054 0.559790 0.874969 8.489244 0.901336 2.838859 23.194056 2.899388 -0.611865 15.918357 -0.991888 -0.412549 -9.014207 -0.893105 0.565225 -2.533694 -0.531774 5.700927 -13.740213 -7.707692 45.617108 -74.740320 -30.210899 36.865984 32.874260 -6.330437 -10.306802 -5.713522 -0.238942 -0.086380 -13.353256 5.079933 -26.359440 -68.486903 1.613253 -20.432980 5.246709 18.069940 5.965037 -29.380344 -0.642655 -75.191964 85.581860 -77.315450 1.559522 -24.922069 9.458617 0.000319 -0.019815 0.000186 0.609840 -23.817941 -1.713618 107.909633 78.760382 116.174867 5.056138 -19.144363 -5.469170 0.003537 0.015709 0.002068
0.838805 131.563161 52.819251 175.922209 -48.282591 -2.967452 3.816468 28.838768 3.879369 0.542588 5.431117 0.560411 0.877734 8.491770 0.900923 2.836077 23.190150 2.900937 -0.602438 15.965694 -0.986850 -0.414871 -9.024073 -0.894417 0.568704 -2.538699 -0.541995 5.700030 -13.731133 -7.696031 45.655168 -74.730110 -30.253371 36.857034 32.874217 -6.343989 -10.300707 -5.724021 -0.240884 -0.093210 -13.337742 5.074379 -26.436804 -68.479579 1.678401 -20.421820 5.237779 18.084660 5.961267 -29.395998 -0.638150 -75.295495 85.580587 -77.412003 1.554857 -24.935138 9.458779 0.000882 -0.011511 0.000515 0.594741 -23.822320 -1.712573 107.854162 78.756632 116.120137 5.053950 -19.138268 -5.466378 0.000616 0.007617 0.000360
0.753492 130.871503 52.951510 175.931735 -48.270558 -2.982614 3.813772 28.828965 3.888267 0.541708 5.440105 0.560964 0.876668 8.502928 0.903373 2.836181 23.170923 2.896306 -0.598782 15.989673 -0.985496 -0.408612 -9.009650 -0.895352 0.569503 -2.540288 -0.544609 5.704211 -13.717133 -7.690063 45.699055 -74.719007 -30.303754 36.864525 32.869049 -6.345953 -10.297629 -5.726376 -0.240971 -0.096321 -13.330649 5.070511 -26.464768 -68.479185 1.704303 -20.420737 5.234849 18.087729 5.961021 -29.408590 -0.631337 -75.316383 85.580541 -77.424887 1.549504 -24.943652 9.458278 0.000545 -0.005220 0.000319 0.584096 -23.832256 -1.705226 107.835404 78.752959 116.107825 5.047296 -19.134159 -5.470733 0.003941 0.002920 0.002304
